<?xml version="1.0" encoding="UTF-8" standalone="no" ?>
<!DOCTYPE svg PUBLIC "-//W3C//DTD SVG 1.1//EN" "http://www.w3.org/Graphics/SVG/1.1/DTD/svg11.dtd">
<svg xmlns="http://www.w3.org/2000/svg" xmlns:xlink="http://www.w3.org/1999/xlink" version="1.1" width="1080" height="1080" viewBox="0 0 1080 1080" xml:space="preserve">
<desc>Created with Fabric.js 5.2.4</desc>
<defs>
</defs>
<g transform="matrix(1 0 0 1 540 540)" id="8444f779-f089-4bce-9095-dfff1df245fd"  >
<rect style="stroke: none; stroke-width: 1; stroke-dasharray: none; stroke-linecap: butt; stroke-dashoffset: 0; stroke-linejoin: miter; stroke-miterlimit: 4; fill: rgb(255,255,255); fill-rule: nonzero; opacity: 1; visibility: hidden;" vector-effect="non-scaling-stroke"  x="-540" y="-540" rx="0" ry="0" width="1080" height="1080" />
</g>
<g transform="matrix(1 0 0 1 540 540)" id="26d2785c-74b7-40bb-b617-78aca48a8de2"  >
</g>
<g transform="matrix(14.21 0 0 14.21 540 540)"  >
<g style=""   >
		<g transform="matrix(1 0 0 1 -0.18 3)"  >
<path style="stroke: none; stroke-width: 1; stroke-dasharray: none; stroke-linecap: butt; stroke-dashoffset: 0; stroke-linejoin: miter; stroke-miterlimit: 4; fill: rgb(0,0,0); fill-rule: nonzero; opacity: 1;" vector-effect="non-scaling-stroke"  transform=" translate(-37.82, -17.5)" d="M 73.1422 6 C 73.1422 9.21 70.1549 12 67.1716 12 L 67.1716 6 L 65.1814 6.00011 L 65.1814 20 L 67.1716 20 L 67.1716 14 C 70.1569 14 73.1422 16.7912 73.1422 20 L 75.1324 20 C 75.1324 16.0598 73.1422 14 70.3847 13 C 73.1422 12 75.1324 9.50854 75.1324 6 L 73.1422 6 Z M 8.46078 6 C 8.46078 9.21 5.47355 12 2.4902 12 L 2.4902 6 L 0.5 6.00011 L 0.5 20 L 2.4902 20 L 2.4902 14 C 5.47549 14 8.46078 16.7912 8.46078 20 L 10.451 20 C 10.451 16.0598 8.46078 14 5.70337 13 C 8.46078 12 10.451 9.50854 10.451 6 L 8.46078 6 Z M 16.6446 7.95357 C 16.6308 7.9914 12.4412 19.5732 12.4412 19.5732 L 14.6481 20.36 C 14.6481 20.36 18.8779 8.66315 18.8825 8.64627 C 18.9902 8.3232 19.2934 8.3266 19.3932 8.32776 C 19.5951 8.32698 19.8358 8.38799 19.9425 8.68313 L 24.1656 20.36 L 26.3725 19.5732 L 22.1688 7.95251 C 21.9409 7.24836 21.1009 6.00127 19.4187 6.0002 C 17.6879 5.98682 16.868 7.22363 16.6446 7.95357 Z M 50.2549 13 C 50.2549 10.2429 52.4868 8 55.2304 8 C 57.9739 8 60.2059 10.2429 60.2059 13 C 60.2059 15.7571 57.9739 18 55.2304 18 C 52.4868 18 50.2549 15.7571 50.2549 13 Z M 48.2647 13 L 48.2647 29 L 50.2549 29 L 50.2549 17.51 C 51.1334 19.0506 53.4758 19.9666 55.2304 20 C 59.13 19.9666 62.2717 16.8339 62.1961 13 C 62.2717 9.13268 59.13 6 55.2304 6 C 51.4065 6 48.2647 9.13268 48.2647 13 Z" stroke-linecap="round" />
</g>
		<g transform="matrix(1 0 0 1 -1.06 -0.18)"  >
<path style="stroke: none; stroke-width: 1; stroke-dasharray: none; stroke-linecap: butt; stroke-dashoffset: 0; stroke-linejoin: miter; stroke-miterlimit: 4; fill: rgb(239,49,36); fill-rule: nonzero; opacity: 1;" vector-effect="non-scaling-stroke"  transform=" translate(-36.94, -14.32)" d="M 44.0442 15.2256 L 45.5914 16.4214 C 45.5835 16.432 44.725 17.5291 43.6493 19.6541 C 42.3339 22.2505 41.7593 23.6841 41.7534 23.6976 L 41.7131 23.7868 C 39.7612 27.5345 36.6128 29.2153 33.2905 28.2842 C 31.5223 27.7876 30.0567 26.6432 29.1627 25.0603 C 28.2688 23.4764 28.0527 21.6434 28.5547 19.8985 L 33.1039 4.05904 C 33.5066 2.6585 34.4379 1.49656 35.7248 0.787565 C 37.0126 0.0785686 38.5028 -0.0921338 39.9223 0.305525 C 42.8497 1.12703 44.555 4.1473 43.724 7.0376 L 43.7171 7.05894 L 40.2661 18.0751 L 40.272 18.0537 C 39.6463 20.2292 37.4586 21.4572 35.2915 20.8499 C 34.2503 20.558 33.3976 19.9015 32.8897 19.0013 C 32.371 18.0829 32.2532 16.9926 32.5597 15.9277 L 35.711 5.17539 L 37.5981 5.71466 L 34.4477 16.4622 C 34.2866 17.0247 34.3426 17.5901 34.6059 18.0566 C 34.8623 18.5105 35.2847 18.8316 35.8279 18.984 C 36.9537 19.2992 38.0519 18.6715 38.382 17.5242 L 38.3889 17.5018 C 38.3889 17.5018 41.8221 6.54295 41.8339 6.50512 C 41.9253 6.187 41.9695 5.86596 41.9695 5.54977 C 41.9695 4.02024 40.9479 2.61001 39.385 2.17161 C 38.4704 1.91556 37.5107 2.02516 36.6816 2.48198 C 35.8534 2.93783 35.2532 3.6866 34.9939 4.5886 L 30.4447 20.428 C 29.705 23.0002 31.2227 25.6868 33.8279 26.4181 C 37.1904 27.3609 39.216 24.3251 39.9469 22.9352 C 40.0618 22.654 40.6541 21.2312 41.8919 18.787 C 43.0668 16.4679 44.0049 15.275 44.0442 15.2256 Z" stroke-linecap="round" />
</g>
</g>
</g>
</svg>